<?xml version="1.0" encoding="UTF-8" standalone="no"?>
<!--
  Magpie icon for the Magpie image-search tool.
  Silhouette traced via potrace from a hand-drawn silhouette by the project author,
  based on "Black-billed Magpie in flight 2" by Wikimedia user Grungaloo (CC-BY-SA 4.0).
-->
<svg xmlns="http://www.w3.org/2000/svg" viewBox="0 0 1000 1000">
  <rect width="1000" height="1000" rx="160" fill="#0f766e"/>
  <g transform="translate(40.0,178.4) scale(0.7667) translate(0.000000,839.000000) scale(0.100000,-0.100000)" fill="#fafafa">
    <path d="M1119 8375 c-74 -40 -171 -284 -221 -555 -27 -149 -30 -478 -5 -610
15 -79 16 -116 1 -74 -62 180 -236 496 -296 538 -12 9 -37 16 -56 16 -99 0
-134 -174 -72 -360 16 -50 38 -137 49 -194 11 -57 35 -155 55 -217 19 -63 58
-211 86 -329 130 -557 203 -671 675 -1049 326 -260 493 -441 643 -692 96 -160
206 -416 174 -405 -307 101 -552 112 -819 36 -178 -49 -386 -167 -522 -295
l-66 -62 -105 -6 c-205 -12 -404 -84 -563 -203 -43 -32 -77 -60 -77 -63 0 -3
165 -34 366 -69 280 -48 377 -68 413 -87 371 -188 964 -364 1446 -430 66 -9
121 -18 123 -19 1 -2 -78 -164 -177 -362 -258 -519 -531 -1082 -586 -1209 -26
-60 -70 -150 -98 -199 -60 -107 -71 -170 -38 -223 49 -78 113 -85 272 -30 211
74 272 46 345 -158 68 -193 130 -235 300 -206 213 38 296 -6 373 -196 78 -188
118 -245 206 -289 129 -63 266 8 284 147 l6 51 84 -118 c146 -205 163 -228
225 -287 141 -137 269 -170 311 -80 29 61 17 109 -58 221 -60 88 -133 229
-125 237 2 2 30 -32 62 -75 110 -149 372 -380 501 -441 82 -39 133 -39 179 2
93 82 43 191 -166 360 -117 95 -247 254 -248 303 0 21 251 -198 480 -419 195
-188 247 -225 316 -225 48 0 77 19 94 60 20 48 0 94 -79 187 -38 45 -88 117
-112 160 -37 68 -118 201 -173 285 -57 86 112 -50 218 -176 154 -183 224 -220
292 -152 48 48 47 97 -7 221 -37 88 -78 250 -65 262 3 3 27 -10 53 -30 107
-77 173 -89 224 -38 37 38 38 87 4 230 -14 57 -24 106 -22 108 2 2 38 -13 80
-33 167 -79 242 -35 197 116 -11 36 -15 148 -6 157 14 14 77 -11 121 -48 64
-53 91 -63 127 -48 56 23 60 58 22 186 -14 49 -28 126 -31 172 l-6 83 43 -7
c24 -4 75 -18 113 -31 88 -30 118 -30 145 -1 39 41 30 92 -38 224 -73 141 -67
151 81 123 130 -25 170 41 78 127 -69 64 -94 115 -74 152 21 41 42 50 138 61
73 8 85 13 110 40 49 55 31 99 -90 219 -74 72 -75 74 -56 92 11 11 45 24 83
30 84 14 110 31 110 70 0 47 -22 79 -109 158 -45 40 -81 76 -81 81 0 5 30 -5
67 -22 898 -407 2176 -678 3198 -678 353 0 463 22 880 175 170 62 253 82 525
125 167 26 311 55 395 80 196 56 190 56 404 20 204 -35 260 -35 305 1 52 41
58 132 11 187 -42 50 -159 87 -515 164 -119 25 -373 35 -479 19 -112 -18 -110
-13 50 120 114 95 139 131 139 198 0 84 -84 139 -256 166 -55 9 -168 29 -251
45 -344 67 -661 94 -1096 95 -225 0 -323 3 -310 10 41 23 109 102 121 141 41
136 -31 280 -176 353 -71 36 -171 63 -313 86 -296 47 -357 59 -528 105 -879
234 -1706 190 -2513 -135 -11 -5 -2 16 26 58 137 204 124 443 -35 679 -77 114
-376 502 -446 577 -142 155 -258 238 -458 326 -342 150 -407 210 -457 428 -45
200 -89 236 -251 207 -111 -21 -157 27 -157 164 0 205 -94 230 -422 113 -102
-36 -115 -36 -74 2 13 12 38 54 56 93 97 209 -18 371 -198 279 -21 -11 -85
-57 -143 -103 -134 -107 -369 -251 -384 -236 -2 2 53 98 121 213 164 275 188
326 188 392 0 44 -4 57 -28 82 -75 79 -125 53 -374 -191 -187 -183 -421 -393
-429 -385 -2 2 44 131 102 287 129 344 147 405 149 530 1 115 -23 172 -87 204
-101 49 -157 -5 -326 -319 -191 -356 -366 -657 -369 -637 -1 9 9 123 22 252
34 316 49 558 42 658 -14 187 -103 293 -209 249 -45 -19 -63 -55 -77 -149 -50
-330 -245 -1156 -263 -1108 -3 8 -8 114 -11 235 -9 333 -30 565 -77 839 -19
111 -19 121 -4 161 36 94 -58 178 -146 130z"/>
  </g>
</svg>
